<svg width="19" height="20" viewBox="0 0 19 20" fill="none" xmlns="http://www.w3.org/2000/svg"><path fill-rule="evenodd" clip-rule="evenodd" d="M3.805 17.724V0h1.333v17.724L8 14.862l.943.943-4 4a.666.666 0 0 1-.943 0l-4-4 .943-.943 2.862 2.862zm11.333-16.39a2 2 0 0 0-2 2v2h4v-2a2 2 0 0 0-2-2zm2 5.333v2.666h1.333v-6a3.333 3.333 0 0 0-6.666 0v6h1.333V6.667h4zm-5.333 4h4a2.667 2.667 0 0 1 1.764 4.666A2.667 2.667 0 0 1 15.805 20h-4v-9.333zm4 4a1.333 1.333 0 0 0 0-2.667h-2.667v2.667h2.667zM13.138 16h2.667a1.333 1.333 0 1 1 0 2.667h-2.667V16z" fill="#8C8C8C"/></svg>