<svg width="19" height="20" viewBox="0 0 19 20" fill="none" xmlns="http://www.w3.org/2000/svg"><path fill-rule="evenodd" clip-rule="evenodd" d="M4 .195c.26-.26.682-.26.943 0l4 4L8 5.138 5.138 2.276V20H3.805V2.276L.943 5.138 0 4.195l4-4zm11.138 1.138a2 2 0 0 0-2 2v2h4v-2a2 2 0 0 0-2-2zm2 5.334v2.666h1.333v-6a3.333 3.333 0 0 0-6.666 0v6h1.333V6.667h4zm-5.333 4h4a2.667 2.667 0 0 1 1.764 4.666A2.667 2.667 0 0 1 15.805 20h-4v-9.333zm4 4a1.333 1.333 0 0 0 0-2.667h-2.667v2.667h2.667zM13.138 16h2.667a1.333 1.333 0 1 1 0 2.667h-2.667V16z" fill="#8C8C8C"/></svg>